<svg xmlns="http://www.w3.org/2000/svg" viewBox="0 0 590 520" width="590" height="520" role="img" aria-label="thytalha · language mix" font-family="ui-sans-serif,-apple-system,Segoe UI,Helvetica,Arial,sans-serif"><text x="295.0" y="25" text-anchor="middle" font-size="15" font-weight="700" fill="#1f2328">thytalha · language mix</text><g transform="translate(279.0,289.0)"><polygon points="0.0,-212.0 201.6,-65.5 124.6,171.5 -124.6,171.5 -201.6,-65.5" fill="none" stroke="#d0d7de" stroke-width="1" opacity="0.85"/><polygon points="0.0,-159.0 151.2,-49.1 93.5,128.6 -93.5,128.6 -151.2,-49.1" fill="none" stroke="#d0d7de" stroke-width="1" opacity="0.72"/><polygon points="0.0,-106.0 100.8,-32.8 62.3,85.8 -62.3,85.8 -100.8,-32.8" fill="none" stroke="#d0d7de" stroke-width="1" opacity="0.60"/><polygon points="0.0,-53.0 50.4,-16.4 31.2,42.9 -31.2,42.9 -50.4,-16.4" fill="none" stroke="#d0d7de" stroke-width="1" opacity="0.47"/><line x1="0" y1="0" x2="0.0" y2="-212.0" stroke="#e6eaef" stroke-width="1"/><line x1="0" y1="0" x2="201.6" y2="-65.5" stroke="#e6eaef" stroke-width="1"/><line x1="0" y1="0" x2="124.6" y2="171.5" stroke="#e6eaef" stroke-width="1"/><line x1="0" y1="0" x2="-124.6" y2="171.5" stroke="#e6eaef" stroke-width="1"/><line x1="0" y1="0" x2="-201.6" y2="-65.5" stroke="#e6eaef" stroke-width="1"/><g><animateTransform attributeName="transform" type="scale" values="0.04;1" dur="1.1s" calcMode="spline" keyTimes="0;1" keySplines="0.22 1 0.36 1" fill="freeze"/><polygon points="0.0,-212.0 96.4,-31.3 24.5,33.8 -21.2,29.2 -17.5,-5.7" fill="#2da44e" fill-opacity="0.22" stroke="#1a7f37" stroke-width="2.5" stroke-linejoin="round"/><circle cx="0.0" cy="-212.0" r="3.6" fill="#116329" stroke="#1a7f37" stroke-width="1.2"/><circle cx="96.4" cy="-31.3" r="3.6" fill="#116329" stroke="#1a7f37" stroke-width="1.2"/><circle cx="24.5" cy="33.8" r="3.6" fill="#116329" stroke="#1a7f37" stroke-width="1.2"/><circle cx="-21.2" cy="29.2" r="3.6" fill="#116329" stroke="#1a7f37" stroke-width="1.2"/><circle cx="-17.5" cy="-5.7" r="3.6" fill="#116329" stroke="#1a7f37" stroke-width="1.2"/></g><text x="0.0" y="-237.0" text-anchor="middle" font-size="13" font-weight="600" fill="#1f2328">C++</text><text x="0.0" y="-222.0" text-anchor="middle" font-size="11" fill="#57606a">100</text><text x="220.6" y="-76.7" text-anchor="start" font-size="13" font-weight="600" fill="#1f2328">JavaScript</text><text x="220.6" y="-61.7" text-anchor="start" font-size="11" fill="#57606a">47.8</text><text x="136.4" y="201.7" text-anchor="start" font-size="13" font-weight="600" fill="#1f2328">C</text><text x="136.4" y="216.7" text-anchor="start" font-size="11" fill="#57606a">19.7</text><text x="-136.4" y="201.7" text-anchor="end" font-size="13" font-weight="600" fill="#1f2328">TSQL</text><text x="-136.4" y="216.7" text-anchor="end" font-size="11" fill="#57606a">17</text><text x="-220.6" y="-76.7" text-anchor="end" font-size="13" font-weight="600" fill="#1f2328">Python</text><text x="-220.6" y="-61.7" text-anchor="end" font-size="11" fill="#57606a">8.7</text></g></svg>